<?xml version="1.0" standalone="no"?>
<!DOCTYPE svg PUBLIC "-//W3C//DTD SVG 20010904//EN"
 "http://www.w3.org/TR/2001/REC-SVG-20010904/DTD/svg10.dtd">
<svg version="1.0" xmlns="http://www.w3.org/2000/svg"
 width="1063.000000pt" height="1063.000000pt" viewBox="0 0 1063.000000 1063.000000"
 preserveAspectRatio="xMidYMid meet">
<metadata>
Created by potrace 1.14, written by Peter Selinger 2001-2017
</metadata>
<g transform="translate(0.000000,1063.000000) scale(0.100000,-0.100000)"
fill="#000000" stroke="none">
<path d="M0 5315 l0 -5315 5315 0 5315 0 0 5315 0 5315 -5315 0 -5315 0 0
-5315z m2430 1785 l0 -1350 868 -2 867 -3 3 -212 2 -213 -1090 0 -1090 0 0
1565 0 1565 220 0 220 0 0 -1350z m2437 1336 c215 -46 403 -169 520 -342 54
-80 76 -124 109 -224 27 -81 28 -94 29 -275 0 -154 -4 -202 -18 -255 -25 -90
-87 -215 -141 -284 l-45 -58 47 -38 c151 -120 256 -285 304 -478 29 -114 31
-369 5 -474 -82 -330 -300 -561 -622 -659 -58 -18 -104 -23 -267 -26 l-198 -5
0 216 0 216 128 0 c197 0 293 33 402 140 72 70 126 176 141 280 32 205 -83
415 -278 508 l-78 37 -1027 3 -1028 2 0 220 0 220 968 2 967 3 68 32 c87 41
163 117 206 205 28 56 34 82 39 156 11 210 -99 375 -297 442 -59 20 -81 20
-1006 20 l-945 0 0 215 0 215 974 0 c810 0 986 -2 1043 -14z m-2747 -4396 l0
-390 205 0 205 0 0 -55 0 -55 -270 0 -270 0 0 445 0 445 65 0 65 0 0 -390z
m1330 330 l0 -60 -225 0 -225 0 0 -130 0 -130 210 0 210 0 0 -60 0 -60 -210 0
-210 0 0 -140 0 -140 240 0 240 0 0 -55 0 -55 -305 0 -305 0 0 445 0 445 290
0 290 0 0 -60z m739 -272 c75 -180 139 -330 142 -332 3 -3 68 145 144 329
l140 335 92 0 93 0 0 -445 0 -445 -65 0 -65 0 0 358 -1 357 -147 -358 -147
-358 -44 3 -44 3 -148 360 -148 360 -1 -362 0 -363 -60 0 -60 0 0 445 0 446
91 -3 90 -3 138 -327z m1181 -113 l0 -445 -65 0 -65 0 0 445 0 445 65 0 65 0
0 -445z m1030 385 l0 -60 -225 0 -225 0 0 -130 0 -130 210 0 210 0 0 -60 0
-60 -210 0 -210 0 0 -140 0 -140 240 0 240 0 0 -55 0 -55 -305 0 -305 0 0 445
0 445 290 0 290 0 0 -60z m532 -252 c4 -340 5 -347 64 -417 71 -85 214 -95
299 -20 18 16 44 51 57 77 22 46 23 56 26 360 l4 312 59 0 60 0 -3 -332 -3
-333 -26 -55 c-123 -260 -506 -261 -627 -2 l-27 57 -3 333 -3 332 60 0 59 0 4
-312z m1173 147 c60 -91 112 -165 116 -165 4 0 58 74 119 165 l111 165 75 0
c57 0 73 -3 68 -12 -4 -7 -70 -102 -146 -211 l-140 -198 18 -27 c10 -15 79
-115 154 -222 75 -107 139 -201 144 -207 5 -10 -12 -13 -73 -13 l-81 0 -127
190 -127 191 -125 -191 -126 -190 -77 0 -78 0 64 93 c36 50 108 156 161 233
l97 141 -146 206 c-80 113 -146 208 -146 211 0 3 35 6 78 6 l77 -1 110 -164z
m-4702 -1060 c-96 -92 -99 -94 -147 -95 -58 0 -58 0 21 111 l57 79 84 0 84 0
-99 -95z m-958 -163 c62 -28 82 -46 108 -97 28 -54 28 -149 1 -196 -11 -19
-41 -50 -66 -69 l-47 -34 36 -12 c80 -28 137 -117 136 -215 -1 -103 -70 -189
-181 -225 -48 -16 -88 -19 -247 -19 l-190 0 -3 448 -2 449 202 -4 c186 -3 207
-5 253 -26z m1145 -32 l0 -60 -225 0 -225 0 0 -130 0 -130 210 0 210 0 0 -60
0 -60 -210 0 -210 0 0 -140 0 -140 240 0 241 0 -3 -57 -3 -58 -300 0 -300 0
-3 435 c-1 239 0 441 3 448 3 9 71 12 290 12 l285 0 0 -60z m841 46 c120 -26
223 -94 275 -181 81 -139 92 -303 29 -443 -30 -65 -119 -160 -183 -195 -97
-52 -151 -61 -362 -62 l-195 0 -3 435 c-1 239 0 441 3 448 7 18 348 16 436 -2z
m1323 -420 c102 -239 189 -441 192 -451 6 -14 -2 -16 -67 -13 l-73 3 -42 105
-42 105 -214 3 -215 2 -43 -110 -43 -110 -69 0 c-37 0 -68 4 -68 10 0 9 360
831 381 873 7 13 22 17 63 17 l54 0 186 -434z m1011 399 c187 -96 171 -359
-26 -438 l-57 -23 119 -189 c65 -105 119 -196 119 -203 0 -10 -18 -12 -72 -10
l-73 3 -114 198 -114 197 -63 0 -64 0 -2 -197 -3 -198 -60 0 -60 0 -3 435 c-1
239 0 441 3 448 4 11 45 13 208 10 l203 -3 59 -30z m946 21 c209 -45 339 -207
341 -426 2 -169 -77 -308 -222 -392 -90 -52 -147 -62 -360 -63 l-195 0 -3 448
-2 447 187 0 c123 0 211 -5 254 -14z m831 -21 c105 -70 103 -232 -4 -302 -86
-58 -211 -25 -258 67 -51 101 0 226 108 261 42 13 113 1 154 -26z"/>
<path d="M2120 2830 l0 -130 105 0 c118 0 159 12 193 55 27 34 29 104 5 146
-28 47 -67 59 -192 59 l-111 0 0 -130z"/>
<path d="M2120 2435 l0 -158 123 5 c137 5 188 23 220 78 23 38 22 117 -2 156
-32 52 -80 68 -218 72 l-123 4 0 -157z"/>
<path d="M4120 2621 l0 -331 100 0 c122 0 188 13 263 53 67 35 101 71 135 145
21 48 24 64 20 145 -6 142 -56 224 -171 284 -48 25 -63 27 -199 31 l-148 4 0
-331z"/>
<path d="M5423 2703 l-82 -198 161 -3 c89 -1 162 -1 164 1 4 4 -145 379 -155
390 -4 4 -44 -82 -88 -190z"/>
<path d="M6420 2821 l0 -141 115 0 c128 0 169 11 203 55 27 33 30 111 7 155
-26 50 -66 63 -202 68 l-123 4 0 -141z"/>
<path d="M7400 2620 l0 -333 128 5 c181 7 277 48 342 146 42 63 53 113 47 207
-8 130 -71 226 -182 277 -43 19 -70 23 -192 26 l-143 4 0 -332z"/>
<path d="M8359 3006 c-35 -24 -69 -85 -69 -124 0 -9 9 -35 19 -58 64 -141 274
-94 274 61 0 117 -128 186 -224 121z m145 -29 c25 -18 24 -76 -2 -97 l-20 -17
24 -41 25 -42 -23 0 c-16 1 -31 13 -50 45 -15 25 -32 45 -38 45 -5 0 -10 -20
-10 -45 0 -38 -3 -45 -20 -45 -19 0 -20 7 -20 105 l0 105 58 0 c32 0 66 -6 76
-13z"/>
<path d="M8410 2924 c0 -23 3 -25 33 -22 24 2 33 8 35 26 3 19 -1 22 -32 22
-32 0 -36 -3 -36 -26z"/>
</g>
</svg>
